<svg xmlns="http://www.w3.org/2000/svg" fill="none" viewBox="0 0 1263 159">
  <mask id="a" width="1263" height="159" x="0" y="0" fill="#000" maskUnits="userSpaceOnUse">
    <path fill="#fff" d="M0 0h1263v159H0z"/>
    <path d="M101.52 1h51.92v154h-51.92zM53.56 155H1.64V1h51.92zm51.48-56.76h-55V55.56h55zM249.02 155v-21.34l-3.52-5.72V87.46q0-8.8-5.5-13.42-5.28-4.62-17.38-4.62-8.15 0-16.5 2.64a45 45 0 0 0-14.3 6.82L175.98 46.1q10.56-6.6 25.3-10.12a124 124 0 0 1 28.82-3.52q31.02 0 47.96 13.86 17.16 13.86 17.16 44V155zm-34.1 2.2q-14.74 0-24.64-5.06t-14.96-13.42a36.6 36.6 0 0 1-5.06-18.92q0-11.65 5.94-19.8t18.04-12.32q12.32-4.18 31.02-4.18h25.08v23.98h-17.16q-7.92 0-11.66 2.64-3.52 2.41-3.52 7.48a9.2 9.2 0 0 0 3.08 7.04q3.3 2.64 8.8 2.64 5.06 0 9.24-2.64 4.4-2.86 6.38-8.8l6.38 14.74q-2.86 13.42-12.1 20.02t-24.86 6.6m229.66 0q-20.69 0-36.74-7.92t-25.3-22q-9.03-14.3-9.02-32.56 0-18.25 9.02-32.34 9.25-14.08 25.3-22t36.74-7.92q21.99 0 37.62 9.46 15.62 9.45 21.56 26.18l-38.5 18.92q-3.75-8.35-9.24-12.1a19.7 19.7 0 0 0-11.66-3.74q-5.5 0-10.34 2.64a19.6 19.6 0 0 0-7.48 7.92q-2.64 5.06-2.64 12.98t2.64 13.2q2.85 5.28 7.48 7.92a21 21 0 0 0 10.34 2.64q6.38 0 11.66-3.74 5.49-3.75 9.24-12.1l38.5 18.92q-5.94 16.72-21.56 26.18-15.63 9.45-37.62 9.46m72.85-2.2V34.66h67.54q24.21 0 37.62 8.36 13.42 8.15 13.42 23.1 0 14.52-12.32 23.32-12.31 8.58-33.22 8.58l3.74-10.12q22.23 0 33.66 8.14 11.66 8.14 11.66 23.76 0 16.06-12.76 25.74Q614.23 155 588.5 155zM561 124.2h23.1q5.5 0 8.14-2.42t2.64-6.6q0-4.4-2.64-6.38-2.64-2.2-8.14-2.2H561zm0-42.02h19.58q5.73 0 8.14-2.2 2.64-2.2 2.64-6.38 0-4.4-2.64-6.16-2.41-1.98-8.14-1.98H561zM731.03 155v-37.84l6.16 7.26h-27.5q-27.93 0-44.22-11.22-16.28-11.44-16.28-32.12 0-22 16.72-34.1 16.95-12.32 45.76-12.32h63.36V155zm-84.26 0 31.46-45.54h50.16L699.35 155zm84.26-52.58V61.28l6.16 11.88h-24.42q-6.15 0-9.46 2.42-3.3 2.2-3.3 7.26 0 10.56 12.76 10.56h24.42zm114.06 55.44q-13.86 0-28.38-2.2a153 153 0 0 1-27.94-7.04l12.54-32.78q10.35 3.74 20.68 5.28 10.56 1.54 21.78 1.54 5.05 0 8.8-.88 3.97-.88 6.16-2.64a5.6 5.6 0 0 0 2.2-4.62q0-3.52-2.2-4.84-1.98-1.54-7.04-1.54h-27.5V80.42h22.88q3.74 0 5.94-.66a6 6 0 0 0 3.52-2.2 6.3 6.3 0 0 0 1.1-3.74 5 5 0 0 0-1.54-3.74q-1.32-1.54-4.84-2.42-3.3-.88-9.24-.88-8.8 0-18.48 1.98a165 165 0 0 0-20.02 5.5L792.29 42.8q12.32-4.85 25.52-7.7 13.42-2.85 25.96-3.08 17.6-.22 32.12 3.52t23.1 11.44 8.58 19.8q0 8.8-5.5 15.84-5.28 7.04-14.3 11.22t-20.24 4.18l1.1-8.8q19.35 0 30.8 7.92t11.44 21.34q0 12.98-9.02 21.78t-23.98 13.2q-14.74 4.4-32.78 4.4m83.6-2.86V1h51.04v80.08L1032.75 1h48.84v154h-51.04V75.14L977.75 155zm180.25 0V1h51.04v80.08L1213 1h48.84v154h-51.04V75.14L1158 155z"/>
  </mask>
  <path fill="#6c4e2c" d="M101.52 1V0h-1v1zm51.92 0h1V0h-1zm0 154v1h1v-1zm-51.92 0h-1v1h1zm-47.96 0v1h1v-1zm-51.92 0h-1v1h1zm0-154V0h-1v1zm51.92 0h1V0h-1zm51.48 97.24v1h1v-1zm-55 0h-1v1h1zm0-42.68v-1h-1v1zm55 0h1v-1h-1zM101.52 1v1h51.92V0h-51.92zm51.92 0h-1v154h2V1zm0 154v-1h-51.92v2h51.92zm-51.92 0h1V1h-2v154zm-47.96 0v-1H1.64v2h51.92zm-51.92 0h1V1h-2v154zm0-154v1h51.92V0H1.64zm51.92 0h-1v154h2V1zm51.48 97.24v-1h-55v2h55zm-55 0h1V55.56h-2v42.68zm0-42.68v1h55v-2h-55zm55 0h-1v42.68h2V55.56zM249.02 155h-1v1h1zm0-21.34h1v-.28l-.15-.24zm-3.52-5.72h-1v.28l.15.24zm-5.5-53.9-.66.75.02.02zm-33.88-1.98.28.96h.02zm-14.3 6.82-.9.44.53 1.08.97-.72zM175.98 46.1l-.53-.85-.76.48.39.8zm25.3-10.12.23.97zm76.78 10.34-.63.77zM295.22 155v1h1v-1zm-104.94-2.86-.46.89zm-14.96-13.42-.86.5v.02zm.88-38.72.8.59zm18.04-12.32-.32-.95zm56.1-4.18h1v-1h-1zm0 23.98v1h1v-1zm-28.82 2.64.57.82zm-.44 14.52-.68.73.03.03.03.02zm18.04 0 .53.85.01-.01zm6.38-8.8.92-.4-1.04-2.4-.83 2.48zm6.38 14.74.98.2.06-.3-.12-.3zm-12.1 20.02-.58-.81zm9.24 4.4h1v-21.34h-2V155zm0-21.34.85-.52-3.52-5.72-.85.52-.85.52 3.52 5.72zm-3.52-5.72h1V87.46h-2v40.48zm0-40.48h1c0-6.09-1.91-10.87-5.86-14.19l-.64.77-.64.77c3.39 2.84 5.14 7 5.14 12.65zM240 74.04l.66-.75c-3.8-3.32-9.9-4.87-18.04-4.87v2c7.98 0 13.48 1.53 16.72 4.37zm-17.38-4.62v-1q-8.31 0-16.8 2.69l.3.95.3.95a54 54 0 0 1 16.2-2.59zm-16.5 2.64-.28-.96a46 46 0 0 0-14.62 6.98l.6.8.6.8a44 44 0 0 1 13.98-6.66zm-14.3 6.82.9-.44-15.84-32.78-.9.44-.9.44 15.84 32.78zM175.98 46.1l.53.85q10.4-6.5 25-10l-.23-.97-.23-.97q-14.87 3.54-25.6 10.24zm25.3-10.12.23.97q14.64-3.5 28.59-3.49v-2q-14.21 0-29.05 3.55zm28.82-3.52v1c20.54 0 36.27 4.59 47.33 13.63l.63-.77.63-.77c-11.53-9.44-27.77-14.09-48.59-14.09zm47.96 13.86-.63.78c11.13 8.98 16.79 23.31 16.79 43.22h2c0-20.28-5.78-35.28-17.53-44.78zm17.16 44h-1V155h2V90.32zm0 64.68v-1h-46.2v2h46.2zm-80.3 2.2v-1q-14.56-.01-24.18-4.95l-.46.89-.46.89q10.18 5.19 25.1 5.17zm-24.64-5.06.46-.89q-9.68-4.95-14.56-13.05l-.86.52-.86.52q5.24 8.62 15.36 13.79zm-14.96-13.42.86-.5a35.6 35.6 0 0 1-4.92-18.42h-2q0 10.6 5.2 19.43zm-5.06-18.92h1q.01-11.38 5.75-19.21l-.81-.59-.8-.59q-6.15 8.45-6.14 20.39zm5.94-19.8.8.59c3.82-5.22 9.64-9.23 17.57-11.96l-.33-.95-.33-.95c-8.2 2.84-14.4 7.05-18.52 12.68zm18.04-12.32.32.95q12.11-4.12 30.7-4.13v-2q-18.8 0-31.34 4.23zm31.02-4.18v1h25.08v-2h-25.08zm25.08 0h-1v23.98h2V83.5zm0 23.98v-1h-17.16v2h17.16zm-17.16 0v-1c-5.35 0-9.5.88-12.24 2.82l.58.82.58.82c2.24-1.58 5.87-2.46 11.08-2.46zm-11.66 2.64-.57-.82c-2.67 1.83-3.95 4.67-3.95 8.3h2c0-3.11 1.06-5.26 3.09-6.66zM218 117.6h-1q0 4.62 3.4 7.77l.68-.73.68-.73a8.2 8.2 0 0 1-2.76-6.31zm3.08 7.04-.62.78c2.42 1.94 5.6 2.86 9.42 2.86v-2c-3.5 0-6.2-.84-8.18-2.42zm8.8 2.64v1q5.34 0 9.77-2.8l-.53-.84-.53-.84a16 16 0 0 1-8.71 2.48zm9.24-2.64.54.84c3.16-2.05 5.41-5.2 6.79-9.32l-.95-.32-.95-.32c-1.26 3.8-3.27 6.52-5.98 8.28zm6.38-8.8-.92.4 6.38 14.74.92-.4.92-.4-6.38-14.74zm6.38 14.74-.98-.2c-1.86 8.75-5.78 15.18-11.7 19.4l.58.82.58.81c6.4-4.57 10.55-11.48 12.5-20.62zm-12.1 20.02-.58-.81c-5.94 4.24-14 6.41-24.28 6.41v2c10.55 0 19.06-2.23 25.44-6.79zm168.06-1.32.44-.9zm-25.3-22-.85.53v.01h.01zm0-64.9-.84-.55v.01zm25.3-22 .44.9zm74.36 1.54-.52.86zm21.56 26.18.44.9.8-.4-.3-.83zm-38.5 18.92-.91.4.42.95.93-.45zm-9.24-12.1-.58.82h.01zm-22-1.1-.48-.88h-.01v.01zm-7.48 7.92-.88-.48v.01zm0 26.18-.9.45.01.01v.02zm7.48 7.92-.5.87h.01zm22-1.1-.56-.83h-.01l-.01.01zm9.24-12.1.44-.9-.93-.45-.42.94zm38.5 18.92.94.33.3-.83-.8-.4zm-21.56 26.18.51.85zm-37.62 9.46v-1q-20.48 0-36.3-7.82l-.44.9-.44.9q16.3 8.02 37.18 8.02zm-36.74-7.92.44-.9q-15.83-7.8-24.9-21.65l-.84.55-.84.55q9.4 14.32 25.7 22.35zm-25.3-22 .84-.53q-8.85-14.03-8.86-32.03h-2q0 18.53 9.17 33.1zm-9.02-32.56h1q0-18 8.86-31.8l-.84-.54-.85-.54q-9.18 14.35-9.17 32.88zm9.02-32.34.83.55q9.08-13.85 24.91-21.65l-.44-.9-.44-.9q-16.3 8.03-25.7 22.35zm25.3-22 .44.9q15.82-7.81 36.3-7.82v-2q-20.88 0-37.18 8.02zm36.74-7.92v1q21.77.01 37.1 9.32l.52-.86.51-.86q-15.9-9.6-38.13-9.6zm37.62 9.46-.52.86Q497 52.06 502.8 68.43l.95-.33.94-.33q-6.07-17.07-21.99-26.7zm21.56 26.18-.44-.9-38.5 18.92.44.9.44.9L504.2 69zm-38.5 18.92.91-.4c-2.54-5.69-5.72-9.9-9.59-12.53l-.56.83-.56.83c3.46 2.35 6.44 6.21 8.89 11.68zm-9.24-12.1.58-.82a20.7 20.7 0 0 0-12.24-3.92v2q6.06 0 11.08 3.56zm-11.66-3.74v-1q-5.76 0-10.82 2.76l.48.88.48.88a20 20 0 0 1 9.86-2.52zm-10.34 2.64-.5-.87a20.6 20.6 0 0 0-7.86 8.31l.88.48.88.48a18.6 18.6 0 0 1 7.1-7.53zm-7.48 7.92-.89-.46q-2.77 5.36-2.75 13.44h2q.02-7.75 2.52-12.52zm-2.64 12.98h-1q-.01 8.1 2.74 13.65l.9-.45.9-.45q-2.53-5-2.54-12.75zm2.64 13.2-.88.48a20.6 20.6 0 0 0 7.86 8.3l.5-.86.5-.87a18.6 18.6 0 0 1-7.1-7.53zm7.48 7.92-.48.88a22 22 0 0 0 10.82 2.76v-2q-5.24 0-9.86-2.52zm10.34 2.64v1q6.7 0 12.24-3.92l-.58-.82-.58-.82a18.7 18.7 0 0 1-11.08 3.56zm11.66-3.74.56.83c3.87-2.63 7.05-6.84 9.59-12.52l-.91-.41-.91-.4c-2.45 5.46-5.43 9.32-8.9 11.67zm9.24-12.1-.44.9 38.5 18.92.44-.9.44-.9-38.5-18.92zm38.5 18.92-.94-.34q-5.81 16.39-21.14 25.66l.52.86.51.85q15.92-9.64 21.99-26.7zm-21.56 26.18-.52-.86q-15.33 9.31-37.1 9.32v2c14.8 0 27.54-3.19 38.13-9.6zm35.23 7.26h-1v1h1zm0-120.34v-1h-1v1zm105.16 8.36-.52.85zm1.1 46.42.57.82h.01zm-33.22 8.58-.94-.35-.5 1.35h1.44zm3.74-10.12v-1h-.7l-.24.65zm33.66 8.14-.58.81.01.01zm-1.1 49.5.6.8zM561 124.2h-1v1h1zm31.24-2.42-.67-.74zm0-12.98-.64.77.02.02.02.01zM561 106.6v-1h-1v1zm0-24.42h-1v1h1zm27.72-2.2-.64-.77-.01.02-.02.01zm0-12.54-.63.77.04.03.04.03zM561 65.46v-1h-1v1zM517.43 155h1V34.66h-2V155zm0-120.34v1h67.54v-2h-67.54zm67.54 0v1c16.04 0 28.37 2.77 37.1 8.2l.52-.84.53-.85c-9.17-5.71-21.92-8.51-38.15-8.51zm37.62 8.36-.51.85C630.74 49.14 635 56.53 635 66.13h2c0-10.34-4.67-18.36-13.9-23.96zm13.42 23.1h-1c0 9.34-3.93 16.82-11.9 22.5l.58.82.58.81q12.72-9.08 12.74-24.13zM623.7 89.44l-.57-.82c-7.99 5.56-18.84 8.4-32.65 8.4v2c14.06 0 25.36-2.88 33.8-8.76zm-33.22 8.58.94.35 3.74-10.12-.94-.35-.94-.35-3.74 10.12zm3.74-10.12v1c14.72 0 25.7 2.7 33.08 7.95l.58-.81.58-.81c-7.87-5.6-19.33-8.33-34.24-8.33zm33.66 8.14-.57.82c7.48 5.22 11.23 12.82 11.23 22.94h2c0-10.7-4.01-18.95-12.08-24.58zm11.66 23.76h-1c0 10.4-4.1 18.68-12.36 24.94l.6.8.6.8q13.15-10 13.16-26.54zm-12.76 25.74-.6-.8c-8.1 6.12-20.6 9.26-37.68 9.26v2c17.25 0 30.27-3.16 38.89-9.66zM588.5 155v-1h-71.06v2h71.06zM561 124.2v1h23.1v-2H561zm23.1 0v1c3.8 0 6.8-.83 8.82-2.68l-.68-.74-.67-.74c-1.5 1.38-3.92 2.16-7.47 2.16zm8.14-2.42.68.74c2-1.84 2.96-4.32 2.96-7.34h-2c0 2.56-.8 4.47-2.31 5.86zm2.64-6.6h1c0-3.13-.95-5.61-3.04-7.18l-.6.8-.6.8c1.43 1.07 2.24 2.85 2.24 5.58zm-2.64-6.38.64-.77c-2.02-1.68-5-2.43-8.78-2.43v2c3.57 0 6 .72 7.5 1.97zm-8.14-2.2v-1H561v2h23.1zm-23.1 0h-1v17.6h2v-17.6zm0-24.42v1h19.58v-2H561zm19.58 0v1c3.9 0 6.92-.74 8.82-2.46l-.68-.74-.67-.74c-1.33 1.21-3.73 1.94-7.47 1.94zm8.14-2.2.64.77c2.04-1.7 3-4.14 3-7.15h-2c0 2.56-.8 4.38-2.28 5.61zm2.64-6.38h1c0-3.13-.94-5.57-3.08-7l-.56.84-.55.83c1.38.92 2.2 2.59 2.2 5.33zm-2.64-6.16.64-.77c-1.9-1.55-4.9-2.21-8.78-2.21v2c3.75 0 6.17.66 7.51 1.75zm-8.14-1.98v-1H561v2h19.58zm-19.58 0h-1v16.72h2V65.46zM731.03 155h-1v1h1zm0-37.84.76-.65-1.76-2.07v2.72zm6.16 7.26v1h2.16l-1.4-1.65zm-71.72-11.22-.57.82zm.44-66.22.59.81zm109.12-12.32h1v-1h-1zm0 120.34v1h1v-1zm-128.26 0-.82-.57-1.08 1.57h1.9zm31.46-45.54v-1h-.52l-.3.43zm50.16 0 .85.54.98-1.54h-1.83zM699.35 155v1h.55l.3-.46zm31.68-52.58h-1v3.24l1.83-2.68zm0-41.14.9-.46-1.9.46zm6.16 11.88v1h1.65l-.76-1.46zm-33.88 2.42.56.83.02-.01.01-.01zM737.2 93.4l.83.56 1.07-1.56h-1.9zm-6.16 61.6h1v-37.84h-2V155zm0-37.84-.76.65 6.16 7.26.76-.65.76-.65-6.16-7.26zm6.16 7.26v-1h-27.5v2h27.5zm-27.5 0v-1c-18.5 0-33.02-3.72-43.65-11.04l-.57.82-.57.82c11.08 7.64 26.04 11.4 44.8 11.4zm-44.22-11.22.58-.82c-10.58-7.43-15.86-17.82-15.86-31.3h-2c0 14.1 5.58 25.12 16.7 32.94zM649.2 81.08h1c0-14.37 5.44-25.43 16.3-33.29l-.58-.81-.58-.81c-11.43 8.27-17.14 19.95-17.14 34.91zm16.72-34.1.6.8c11.06-8.04 26.08-12.12 45.16-12.12v-2c-19.34 0-34.83 4.13-46.34 12.51zm45.76-12.32v1h63.36v-2h-63.36zm63.36 0h-1V155h2V34.66zm0 120.34v-1h-44v2h44zm-128.26 0 .83.57 31.46-45.54-.83-.57-.82-.57-31.46 45.54zm31.46-45.54v1h50.16v-2h-50.16zm50.16 0-.84-.54-29.04 45.54.84.54.85.54L729.24 110zM699.35 155v-1h-52.58v2h52.58zm31.68-52.58h1V61.28h-2v41.14zm0-41.14-.88.46 6.15 11.88.9-.46.88-.46-6.16-11.88zm6.16 11.88v-1h-24.42v2h24.42zm-24.42 0v-1c-4.22 0-7.61.83-10.05 2.61l.6.81.58.8c1.97-1.43 4.88-2.22 8.87-2.22zm-9.46 2.42-.55-.83c-2.56 1.7-3.75 4.49-3.75 8.09h2c0-3.14 1.01-5.2 2.86-6.43zm-3.3 7.26h-1c0 3.73 1.14 6.69 3.56 8.69 2.38 1.97 5.84 2.87 10.2 2.87v-2c-4.14 0-7.06-.86-8.93-2.41-1.84-1.52-2.83-3.84-2.83-7.15zm12.76 10.56v1h24.42v-2h-24.42zm24.42 0-.82-.56-6.16 9.02.82.56.83.56 6.16-9.02zm79.52 62.26-.15.99zm-27.94-7.04-.93-.36-.37.96.96.34zm12.54-32.78.34-.94-.92-.33-.36.91zm20.68 5.28-.15.99zm30.58.66-.22-.98h-.01zm6.16-2.64.62.78zm0-9.46-.62.79.05.04.06.03zm-34.54-1.54h-1v1h1zm0-27.72v-1h-1v1zm28.82-.66-.26-.96h-.02zm3.52-2.2-.81-.58zm-.44-7.48-.76.65.02.03.03.03zm-4.84-2.42-.26.97h.02zm-27.72 1.1.2.98zm-20.02 5.5-.94.34.33.92.93-.31zM792.29 42.8l-.37-.93-.9.35.33.92zm25.52-7.7-.2-.98h-.01zm25.96-3.08-.01-1zm32.12 3.52.25-.97zm23.1 11.44.67-.74zm3.08 35.64-.79-.62v.01l-.01.01zm-14.3 11.22-.42-.9zm-20.24 4.18-1-.12-.13 1.12h1.13zm1.1-8.8v-1h-.88l-.11.88zm30.8 7.92.57-.82zm2.42 43.12-.7-.72zm-23.98 13.2-.28-.96zm-32.78 4.4v-1q-13.78 0-28.23-2.19l-.15.99-.15.99a190 190 0 0 0 28.53 2.21zm-28.38-2.2.15-.99a152 152 0 0 1-27.76-7l-.33.95-.34.94a154 154 0 0 0 28.13 7.09zm-27.94-7.04.93.36 12.54-32.78-.93-.36-.93-.36-12.54 32.78zm12.54-32.78-.34.94q10.42 3.78 20.87 5.33l.15-.99.15-.99a106 106 0 0 1-20.5-5.23zm20.68 5.28-.14.99q10.63 1.55 21.92 1.55v-2q-11.15 0-21.64-1.53zm21.78 1.54v1q5.14 0 9.03-.9l-.23-.98-.23-.97q-3.6.84-8.57.85zm8.8-.88.22.98c2.72-.61 4.94-1.54 6.56-2.84l-.62-.78-.63-.78q-1.94 1.59-5.75 2.44zm6.16-2.64.62.78a6.6 6.6 0 0 0 2.58-5.4h-2q0 2.38-1.83 3.84zm2.2-4.62h1c0-2.55-.81-4.57-2.69-5.7l-.51.86-.51.86c1.05.63 1.7 1.84 1.7 3.98zm-2.2-4.84.61-.79c-1.6-1.25-4.24-1.75-7.65-1.75v2c3.34 0 5.39.52 6.42 1.33zm-7.04-1.54v-1h-27.5v2h27.5zm-27.5 0h1V80.42h-2v27.72zm0-27.72v1h22.88v-2h-22.88zm22.88 0v1q3.82.01 6.23-.7l-.3-.96-.28-.96q-1.99.61-5.65.62zm5.94-.66.26.96a7 7 0 0 0 4.07-2.58l-.81-.58-.81-.58a5 5 0 0 1-2.97 1.82zm3.52-2.2.81.58a7.3 7.3 0 0 0 1.29-4.32h-2q-.01 1.93-.91 3.16zm1.1-3.74h1q0-2.6-1.83-4.45l-.71.71-.7.7a4 4 0 0 1 1.24 3.04zm-1.54-3.74.76-.65c-1.09-1.27-2.95-2.14-5.36-2.74l-.24.97-.24.97c2.28.57 3.64 1.31 4.32 2.1zm-4.84-2.42.26-.97q-3.5-.92-9.5-.91v2q5.88.01 8.98.85zm-9.24-.88v-1q-8.91 0-18.68 2l.2.98.2.98A91 91 0 0 1 842 67.78zm-18.48 1.98-.2-.98a166 166 0 0 0-20.14 5.53l.32.95.32.95a164 164 0 0 1 19.9-5.47zm-20.02 5.5.94-.34-11.22-31.46-.94.34-.94.34 11.22 31.46zM792.29 42.8l.37.93q12.24-4.8 25.36-7.65l-.21-.98-.21-.98q-13.27 2.88-25.68 7.75zm25.52-7.7.2.98q13.35-2.84 25.78-3.06l-.02-1-.02-1q-12.65.22-26.15 3.1zm25.96-3.08.01 1q17.49-.22 31.86 3.49l.25-.97.25-.97q-14.68-3.78-32.38-3.55zm32.12 3.52-.25.97q14.34 3.7 22.68 11.21l.67-.74.67-.74q-8.82-7.9-23.52-11.67zm23.1 11.44-.67.74c5.5 4.94 8.25 11.26 8.25 19.06h2c0-8.33-2.97-15.21-8.91-20.54zm8.58 19.8h-1q0 8.45-5.29 15.22l.79.62.79.62a26 26 0 0 0 5.7-16.46zm-5.5 15.84-.8-.6q-5.1 6.82-13.92 10.91l.42.91.42.9q9.22-4.26 14.68-11.52zm-14.3 11.22-.42-.9q-8.8 4.07-19.82 4.08v2q11.41 0 20.66-4.27zm-20.24 4.18 1 .12 1.1-8.8-1-.12-1-.12-1.1 8.8zm1.1-8.8v1c12.78 0 22.82 2.62 30.23 7.74l.57-.82.57-.82c-7.85-5.44-18.34-8.1-31.37-8.1zm30.8 7.92-.57.82c7.37 5.1 11 11.92 11 20.52h2q-.02-13.95-11.86-22.16zm11.44 21.34h-1q0 12.58-8.72 21.06l.7.72.7.72c6.21-6.06 9.32-13.59 9.32-22.5zm-9.02 21.78-.7-.72q-8.8 8.6-23.56 12.96l.28.96.28.96q15.15-4.45 24.4-13.44zm-23.98 13.2-.29-.96q-14.58 4.36-32.5 4.36v2q18.18 0 33.07-4.44zm50.82 1.54h-1v1h1zm0-154V0h-1v1zm51.04 0h1V0h-1zm0 80.08h-1v3.32l1.84-2.77zM1032.75 1V0h-.54l-.29.45zm48.84 0h1V0h-1zm0 154v1h1v-1zm-51.04 0h-1v1h1zm0-79.86h1v-3.33l-1.83 2.78zM977.75 155v1h.54l.3-.45zm-49.06 0h1V1h-2v154zm0-154v1h51.04V0H928.7zm51.04 0h-1v80.08h2V1zm0 80.08.84.55 53.01-80.08-.83-.55-.83-.55-53.02 80.08zM1032.75 1v1h48.84V0h-48.84zm48.84 0h-1v154h2V1zm0 154v-1h-51.04v2h51.04zm-51.04 0h1V75.14h-2V155zm0-79.86-.83-.55-52.8 79.86.83.55.84.55 52.8-79.86zM977.75 155v-1H928.7v2h49.06zm131.19 0h-1v1h1zm0-154V0h-1v1zm51.04 0h1V0h-1zm0 80.08h-1v3.32l1.84-2.77zM1213 1V0h-.53l-.3.45zm48.84 0h1V0h-1zm0 154v1h1v-1zm-51.04 0h-1v1h1zm0-79.86h1v-3.33l-1.83 2.78zM1158 155v1h.54l.3-.45zm-49.06 0h1V1h-2v154zm0-154v1h51.04V0h-51.04zm51.04 0h-1v80.08h2V1zm0 80.08.84.55 53.02-80.08L1213 1l-.83-.55-53.02 80.08zM1213 1v1h48.84V0H1213zm48.84 0h-1v154h2V1zm0 154v-1h-51.04v2h51.04zm-51.04 0h1V75.14h-2V155zm0-79.86-.83-.55-52.8 79.86.83.55.84.55 52.8-79.86zM1158 155v-1h-49.06v2H1158z" mask="url(#a)"/>
</svg>
