<svg xmlns="http://www.w3.org/2000/svg" width="20" height="23" fill="none"><path stroke="#5B5E77" stroke-width=".75" d="M16.5 1.608C13.866.087 10.552.91 9.086 3.45L1.69 16.259c-1.08 1.87-.384 4.29 1.556 5.41s4.384.513 5.464-1.358l1.604-2.78 5.233-9.062c.693-1.2.245-2.759-1-3.478-1.246-.719-2.82-.328-3.513.873L5.453 15.53a.277.277 0 0 0 .002.284c.053.089.15.145.253.146a.277.277 0 0 0 .246-.14l5.582-9.668c.543-.941 1.755-1.242 2.731-.678.977.563 1.322 1.763.778 2.704l-5.232 9.063-1.605 2.78c-.93 1.61-3.012 2.128-4.682 1.163-1.671-.964-2.264-3.026-1.334-4.637L9.587 3.74c1.317-2.28 4.268-3.014 6.634-1.648 2.365 1.366 3.206 4.289 1.89 6.569a.277.277 0 0 0 .001.284c.053.089.15.145.253.146a.277.277 0 0 0 .247-.14c1.466-2.54.522-5.821-2.112-7.342Zm1.136 8.38a.282.282 0 0 0-.363.122l-5.86 10.15a.277.277 0 0 0 .002.285c.052.089.149.144.252.146a.277.277 0 0 0 .247-.14l5.86-10.151a.275.275 0 0 0 .028-.235.297.297 0 0 0-.166-.177Z"/></svg>