<svg xmlns="http://www.w3.org/2000/svg" width="26" height="26" fill="none"><path fill="#C7ACF2" d="M4 5.86a1 1 0 0 1 1-1h16a1 1 0 0 1 1 1v10a1 1 0 0 1-1 1h-4.4a1 1 0 0 0-.749.338l-2.01 2.276a.5.5 0 0 1-.717.034l-2.536-2.377a1 1 0 0 0-.683-.27H5a1 1 0 0 1-1-1v-10Z"/><path fill="#5B5E77" fill-rule="evenodd" d="M1 4.86a3 3 0 0 1 3-3h18a3 3 0 0 1 3 3v12a3 3 0 0 1-3 3h-4.612l-2.231 3.381a2 2 0 0 1-3.254.119l-2.695-3.5H4a3 3 0 0 1-3-3v-12Zm3-1a1 1 0 0 0-1 1v12a1 1 0 0 0 1 1h5.208a2 2 0 0 1 1.585.78l2.694 3.5 2.232-3.381a2 2 0 0 1 1.67-.899H22a1 1 0 0 0 1-1v-12a1 1 0 0 0-1-1H4Zm2 9a1 1 0 0 1 1-1h9a1 1 0 1 1 0 2H7a1 1 0 0 1-1-1Zm1-5a1 1 0 1 0 0 2h5a1 1 0 1 0 0-2H7Z" clip-rule="evenodd"/></svg>