<svg
	xmlns="http://www.w3.org/2000/svg"
	width="24"
	height="24"
	fill="none"
>
	<g clip-path="url(#a)">
		<path
			fill="#6CB63D"
			d="M7.403 20.4c-.097-.076-.203-.143-.29-.23-2.362-2.357-4.723-4.717-7.098-7.082C0 13.062 0 13.041 0 13.005c.064-.072.131-.125.191-.185l3.315-3.313c.06-.06.122-.117.195-.187.07.066.133.121.193.18l4.391 4.391c.433.433.809.434 1.24.002 3.52-3.518 7.038-7.037 10.555-10.557.065-.065.111-.15.177-.242.869.865 1.692 1.685 2.507 2.526-.075.085-.144.148-.21.214L8.762 19.624c-.11.108-.226.22-.36.292-.327.173-.665.324-.999.484Z"
		/>
		<path
			fill="#599F2B"
			d="M7.41 20.414c.327-.174.665-.325.991-.498.135-.072.252-.184.361-.293 4.598-4.595 9.195-9.192 13.792-13.789.066-.066.135-.129.218-.2.409.38.804.77 1.213 1.162.015.026.015.047.015.084-.07.077-.142.135-.208.2L10.74 20.131a2.628 2.628 0 0 1-3 .478 3.46 3.46 0 0 1-.33-.195Z"
		/>
	</g>
	<defs>
		<clipPath id="a"><path fill="#fff" d="M0 0h24v24H0z" /></clipPath>
	</defs>
</svg>