<svg xmlns="http://www.w3.org/2000/svg" width="24" height="24" fill="none"><path fill="#6E7FFC" fill-rule="evenodd" d="M9.314 19.926 19.929 9.31a3.7 3.7 0 1 0-5.232-5.232L4.082 14.694a2.5 2.5 0 0 0-.705 1.396l-.36 2.398a2.2 2.2 0 0 0 2.502 2.503l2.399-.36a2.5 2.5 0 0 0 1.396-.705ZM7.62 18.653l-2.398.36a.2.2 0 0 1-.228-.227l.361-2.399a.5.5 0 0 1 .141-.279l8.31-8.309 2.403 2.404-8.31 8.309a.5.5 0 0 1-.279.14Zm10.003-9.865.892-.891a1.7 1.7 0 1 0-2.404-2.404l-.891.892 2.403 2.403Z" clip-rule="evenodd"/></svg>