<svg xmlns="http://www.w3.org/2000/svg" width="26" height="26" fill="none"><path fill="#B6B8CB" fill-rule="evenodd" d="M15.575 2.307c.244-.879-.693-1.585-1.467-1.157a11.465 11.465 0 0 0-5.913 9.892l-.014 1.273a5.607 5.607 0 0 1-.723-1.45L7.173 10c-.322-.98-1.734-.903-1.947.107l-.885 4.193c-1.163 5.507 3.066 10.68 8.686 10.68 4.86 0 8.826-3.94 8.826-8.807a6.27 6.27 0 0 0-.982-3.37l-.535-.838a4.826 4.826 0 0 1-.756-2.593v-3.24c0-.886-1.05-1.35-1.705-.755l-.522.474a11.744 11.744 0 0 0-2.108 2.547c-.391-1.79-.345-3.66.152-5.449l.178-.64Zm-2.495 2.07c-.29 2.401.077 4.85 1.082 7.077.386.855 1.586.758 1.878-.086a9.802 9.802 0 0 1 1.54-2.833v.836c0 1.3.371 2.572 1.07 3.668l.534.838a4.27 4.27 0 0 1 .669 2.295c0 3.756-3.064 6.806-6.826 6.806-4.358 0-7.628-4.011-6.73-8.266l.26-1.23a7.607 7.607 0 0 0 2.024 1.973c.67.444 1.567-.03 1.575-.835l.039-3.557a9.454 9.454 0 0 1 2.885-6.686Z" clip-rule="evenodd"/></svg>