<svg xmlns="http://www.w3.org/2000/svg" width="21" height="22" fill="none"><path fill="#5B5E77" fill-rule="evenodd" d="M3.783 2.1c-.2-.1-.7-.1-.9 0-1.9 1.5-2.5 3.1-1.3 4.7.2.2.6.3.9.1.4-.1.5-.4.3-.6-.9-1.2-.5-2.3 1-3.5.3-.2.3-.5 0-.7Zm-.3-2.1c.3 0 .7.2.9.4l2.4 2.8c.8 1 .8 2.4-.1 3.3l-1.1 1.1c-.4.5-.4 1.2 0 1.7 1.8 2.3 3.9 4.4 6.2 6.2.5.4 1.2.4 1.6 0l1.1-1.1c.9-.9 2.4-1 3.3-.1l2.8 2.4c.3.2.4.5.4.9 0 .3-.1.7-.4.9l-1.2 1.2a4.71 4.71 0 0 1-5.6.8c-5.6-3.2-10.1-7.7-13.2-13.3-1-1.8-.7-4.1.8-5.6l1.2-1.2c.3-.3.6-.4.9-.4Z" clip-rule="evenodd"/></svg>